<?xml version="1.0" encoding="UTF-8" standalone="no"?>
<!DOCTYPE svg PUBLIC "-//W3C//DTD SVG 1.1//EN"
 "http://www.w3.org/Graphics/SVG/1.1/DTD/svg11.dtd">
<!-- Generated by graphviz version 2.43.0 (0)
 -->
<!-- Title: flowchart Pages: 1 -->
<svg width="283pt" height="188pt"
 viewBox="0.00 0.00 282.95 188.00" xmlns="http://www.w3.org/2000/svg" xmlns:xlink="http://www.w3.org/1999/xlink">
<g id="graph0" class="graph" transform="scale(1 1) rotate(0) translate(4 184)">
<title>flowchart</title>
<polygon fill="white" stroke="transparent" points="-4,4 -4,-184 278.95,-184 278.95,4 -4,4"/>
<!-- start -->
<g id="node1" class="node">
<title>start</title>
<ellipse fill="none" stroke="black" cx="34.45" cy="-162" rx="34.39" ry="18"/>
<text text-anchor="middle" x="34.45" y="-158.3" font-family="Times,serif" font-size="14.00">Start</text>
</g>
<!-- decision1 -->
<g id="node2" class="node">
<title>decision1</title>
<polygon fill="none" stroke="black" points="165.45,-180 87.19,-162 165.45,-144 243.7,-162 165.45,-180"/>
<text text-anchor="middle" x="165.45" y="-158.3" font-family="Times,serif" font-size="14.00">Decision?</text>
</g>
<!-- operation1 -->
<g id="node3" class="node">
<title>operation1</title>
<polygon fill="none" stroke="black" points="155.95,-108 54.95,-108 54.95,-72 155.95,-72 155.95,-108"/>
<text text-anchor="middle" x="105.45" y="-86.3" font-family="Times,serif" font-size="14.00">Operation 1</text>
</g>
<!-- decision1&#45;&gt;operation1 -->
<g id="edge1" class="edge">
<title>decision1&#45;&gt;operation1</title>
<path fill="none" stroke="black" d="M153.01,-146.5C145.49,-137.71 135.68,-126.27 126.92,-116.06"/>
<polygon fill="black" stroke="black" points="129.36,-113.52 120.19,-108.2 124.04,-118.07 129.36,-113.52"/>
</g>
<!-- operation2 -->
<g id="node4" class="node">
<title>operation2</title>
<polygon fill="none" stroke="black" points="274.95,-108 173.95,-108 173.95,-72 274.95,-72 274.95,-108"/>
<text text-anchor="middle" x="224.45" y="-86.3" font-family="Times,serif" font-size="14.00">Operation 2</text>
</g>
<!-- decision1&#45;&gt;operation2 -->
<g id="edge2" class="edge">
<title>decision1&#45;&gt;operation2</title>
<path fill="none" stroke="black" d="M177.67,-146.5C185.08,-137.71 194.72,-126.27 203.33,-116.06"/>
<polygon fill="black" stroke="black" points="206.18,-118.11 209.95,-108.2 200.83,-113.59 206.18,-118.11"/>
</g>
<!-- end -->
<g id="node5" class="node">
<title>end</title>
<ellipse fill="none" stroke="black" cx="164.45" cy="-18" rx="29.5" ry="18"/>
<text text-anchor="middle" x="164.45" y="-14.3" font-family="Times,serif" font-size="14.00">End</text>
</g>
<!-- operation1&#45;&gt;end -->
<g id="edge3" class="edge">
<title>operation1&#45;&gt;end</title>
<path fill="none" stroke="black" d="M120.03,-71.7C127.6,-62.71 136.95,-51.62 145.12,-41.93"/>
<polygon fill="black" stroke="black" points="147.86,-44.1 151.63,-34.2 142.51,-39.59 147.86,-44.1"/>
</g>
<!-- operation2&#45;&gt;end -->
<g id="edge4" class="edge">
<title>operation2&#45;&gt;end</title>
<path fill="none" stroke="black" d="M209.62,-71.7C201.92,-62.71 192.41,-51.62 184.1,-41.93"/>
<polygon fill="black" stroke="black" points="186.64,-39.52 177.48,-34.2 181.33,-44.07 186.64,-39.52"/>
</g>
</g>
</svg>
